# xmcd
#
# Track frame offsets:
#	150
#	16063
#	32974
#	43985
#	58768
#	71888
#	91115
#	107118
#	120540
#	130428
#	146256
#	162666
#	178825
#	192636
#	208160
#	226694
#	242184
#	258377
#	277066
#	302813
#	327050
#
# Disc length: 4565 seconds
#
# Revision: 1
# Processed by: cddbd v1.5.2PL0 Copyright (c) Steve Scherf et al.
# Submitted via: audiograbber 1.83.01
#
DISCID=4111d315
DTITLE=Various Artist - The Blues News Collection Vol. 5
DYEAR=2010
DGENRE=Blues
TTITLE0=Jessy Martens and Band - Mama, He Treats Your Daughter Mean
TTITLE1=The Almost Three - CO2
TTITLE2=Dieter Kropp - Sammler und Jäger
TTITLE3=Fast Seat Bells - Help Me Baby
TTITLE4=Greyhound George - Chicken
TTITLE5=Cologne Blues Club - Desperation
TTITLE6=Downtown Blues Band - When I Kick The Bucket
TTITLE7=Nico Brina - Happy Ol' Boy
TTITLE8=Blueswalkers - Big Black Dogs
TTITLE9=Kris Pohlmann Band - Got To Let You Go
TTITLE10=Tommy Lonecat - High Sheriff Blues
TTITLE11=Jan Fischer Bluesband - Telephone Blues
TTITLE12=Magic Ed Combo - Arrested For Driving While Blind
TTITLE13=BluesTones - Steady Rollin' Girl
TTITLE14=Bayou Alligators - Indian Summer
TTITLE15=Fast Eddy's Blue Band - Slow Down
TTITLE16=Why Ma Bluesrockband - Hourglass
TTITLE17=Blues Control - Keep Cool
TTITLE18=Blues Lick - Da Grichtsvoizieha
TTITLE19=Texas Flood Blues Band - I Can't See The Light Of Day
TTITLE20=The Blues Mothers - Singin' The Blues
EXTD=
EXTT0=
EXTT1=
EXTT2=
EXTT3=
EXTT4=
EXTT5=
EXTT6=
EXTT7=
EXTT8=
EXTT9=
EXTT10=
EXTT11=
EXTT12=
EXTT13=
EXTT14=
EXTT15=
EXTT16=
EXTT17=
EXTT18=
EXTT19=
EXTT20=
PLAYORDER=
